<?xml version="1.0" standalone="no"?>
<svg xmlns:xlink="http://www.w3.org/1999/xlink" id="wave" style="transform:rotate(0deg); transition: 0.3s" viewBox="0 0 1440 490" version="1.1" xmlns="http://www.w3.org/2000/svg"><defs><linearGradient id="sw-gradient-0" x1="0" x2="0" y1="1" y2="0"><stop stop-color="rgba(0, 85, 200, 1)" offset="0%"/><stop stop-color="rgba(0, 153, 218, 1)" offset="100%"/></linearGradient></defs><path style="transform:translate(0, 0px); opacity:1" fill="url(#sw-gradient-0)" d="M0,147L120,122.5C240,98,480,49,720,73.5C960,98,1200,196,1440,212.3C1680,229,1920,163,2160,155.2C2400,147,2640,196,2880,196C3120,196,3360,147,3600,171.5C3840,196,4080,294,4320,318.5C4560,343,4800,294,5040,277.7C5280,261,5520,278,5760,236.8C6000,196,6240,98,6480,114.3C6720,131,6960,261,7200,334.8C7440,408,7680,425,7920,375.7C8160,327,8400,212,8640,163.3C8880,114,9120,131,9360,130.7C9600,131,9840,114,10080,138.8C10320,163,10560,229,10800,277.7C11040,327,11280,359,11520,334.8C11760,310,12000,229,12240,212.3C12480,196,12720,245,12960,228.7C13200,212,13440,131,13680,155.2C13920,180,14160,310,14400,326.7C14640,343,14880,245,15120,187.8C15360,131,15600,114,15840,138.8C16080,163,16320,229,16560,261.3C16800,294,17040,294,17160,294L17280,294L17280,490L17160,490C17040,490,16800,490,16560,490C16320,490,16080,490,15840,490C15600,490,15360,490,15120,490C14880,490,14640,490,14400,490C14160,490,13920,490,13680,490C13440,490,13200,490,12960,490C12720,490,12480,490,12240,490C12000,490,11760,490,11520,490C11280,490,11040,490,10800,490C10560,490,10320,490,10080,490C9840,490,9600,490,9360,490C9120,490,8880,490,8640,490C8400,490,8160,490,7920,490C7680,490,7440,490,7200,490C6960,490,6720,490,6480,490C6240,490,6000,490,5760,490C5520,490,5280,490,5040,490C4800,490,4560,490,4320,490C4080,490,3840,490,3600,490C3360,490,3120,490,2880,490C2640,490,2400,490,2160,490C1920,490,1680,490,1440,490C1200,490,960,490,720,490C480,490,240,490,120,490L0,490Z"/></svg>